<?xml version="1.0" encoding="utf-8"?>
<!-- Generator: Adobe Illustrator 17.0.0, SVG Export Plug-In . SVG Version: 6.00 Build 0)  -->
<!DOCTYPE svg PUBLIC "-//W3C//DTD SVG 1.1//EN" "http://www.w3.org/Graphics/SVG/1.1/DTD/svg11.dtd">
<svg version="1.1" xmlns="http://www.w3.org/2000/svg" xmlns:xlink="http://www.w3.org/1999/xlink" x="0px" y="0px" width="180px"
	 height="252.28px" viewBox="0 0 180 252.28" enable-background="new 0 0 180 252.28" xml:space="preserve">
<symbol  id="Over" viewBox="-126.125 -92.375 126.125 92.5">
	<g id="Keyboard_2_">
		<g>
			<polygon fill="#FFFFFF" points="-18.597,-66.25 -18.597,-0.125 -0.125,-0.125 -0.125,-66.25 			"/>
			<path d="M-0.25-0.25v-65.875h-18.221V-0.25H-0.25 M0,0h-18.721v-66.375H0V0L0,0z"/>
		</g>
		<g>
			<polygon fill="#FFFFFF" points="-17.462,-31.077 -17.462,-11.471 -14.875,-11.471 -14.875,-31.077 			"/>
			<path d="M-15-11.596v-19.356h-2.337v19.356H-15 M-14.75-11.346h-2.837v-19.856h2.837V-11.346L-14.75-11.346z"/>
		</g>
		<g>
			<polygon fill="#FFFFFF" points="-17.462,-10.654 -17.462,-8.067 -14.875,-8.067 -14.875,-10.654 			"/>
			<path d="M-15-8.192v-2.337h-2.337v2.337H-15 M-14.75-7.942h-2.837v-2.837h2.837V-7.942L-14.75-7.942z"/>
		</g>
		<g>
			<polygon fill="#FFFFFF" points="-17.462,-7.25 -17.462,-4.664 -14.875,-4.664 -14.875,-7.25 			"/>
			<path d="M-15-4.789v-2.337h-2.337v2.337H-15 M-14.75-4.539h-2.837v-2.837h2.837V-4.539L-14.75-4.539z"/>
		</g>
		<g>
			<polygon fill="#FFFFFF" points="-17.462,-3.846 -17.462,-1.26 -14.875,-1.26 -14.875,-3.846 			"/>
			<path d="M-15-1.385v-2.337h-2.337v2.337H-15 M-14.75-1.135h-2.837v-2.837h2.837V-1.135L-14.75-1.135z"/>
		</g>
		<g>
			<polygon fill="#FFFFFF" points="-14.058,-17.461 -14.058,-14.875 -11.472,-14.875 -11.472,-17.461 			"/>
			<path d="M-11.597-15v-2.337h-2.337V-15H-11.597 M-11.347-14.75h-2.837v-2.837h2.837V-14.75L-11.347-14.75z"/>
		</g>
		<g>
			<polygon fill="#FFFFFF" points="-14.058,-14.058 -14.058,-11.471 -11.472,-11.471 -11.472,-14.058 			"/>
			<path d="M-11.597-11.596v-2.337h-2.337v2.337H-11.597 M-11.347-11.346h-2.837v-2.837h2.837V-11.346L-11.347-11.346z"/>
		</g>
		<g>
			<polygon fill="#FFFFFF" points="-14.058,-10.654 -14.058,-8.067 -11.472,-8.067 -11.472,-10.654 			"/>
			<path d="M-11.597-8.192v-2.337h-2.337v2.337H-11.597 M-11.347-7.942h-2.837v-2.837h2.837V-7.942L-11.347-7.942z"/>
		</g>
		<g>
			<polygon fill="#FFFFFF" points="-14.058,-7.25 -14.058,-1.26 -11.472,-1.26 -11.472,-7.25 			"/>
			<path d="M-11.597-1.385v-5.74h-2.337v5.74H-11.597 M-11.347-1.135h-2.837v-6.24h2.837V-1.135L-11.347-1.135z"/>
		</g>
		<g>
			<polygon fill="#FFFFFF" points="-14.058,-48.096 -14.058,-42.106 -11.472,-42.106 -11.472,-48.096 			"/>
			<path d="M-11.597-42.231v-5.74h-2.337v5.74H-11.597 M-11.347-41.981h-2.837v-6.24h2.837V-41.981L-11.347-41.981z"/>
		</g>
		<g>
			<polygon fill="#FFFFFF" points="-14.058,-20.866 -14.058,-18.279 -11.472,-18.279 -11.472,-20.866 			"/>
			<path d="M-11.597-18.404v-2.337h-2.337v2.337H-11.597 M-11.347-18.154h-2.837v-2.837h2.837V-18.154L-11.347-18.154z"/>
		</g>
		<g>
			<polygon fill="#FFFFFF" points="-14.058,-27.673 -14.058,-25.086 -11.472,-25.086 -11.472,-27.673 			"/>
			<path d="M-11.597-25.212v-2.337h-2.337v2.337H-11.597 M-11.347-24.962h-2.837v-2.837h2.837V-24.962L-11.347-24.962z"/>
		</g>
		<g>
			<polygon fill="#FFFFFF" points="-14.058,-31.077 -14.058,-28.491 -11.472,-28.491 -11.472,-31.077 			"/>
			<path d="M-11.597-28.615v-2.337h-2.337v2.337H-11.597 M-11.347-28.365h-2.837v-2.837h2.837V-28.365L-11.347-28.365z"/>
		</g>
		<g>
			<polygon fill="#FFFFFF" points="-14.058,-24.27 -14.058,-21.683 -11.472,-21.683 -11.472,-24.27 			"/>
			<path d="M-11.597-21.808v-2.337h-2.337v2.337H-11.597 M-11.347-21.558h-2.837v-2.837h2.837V-21.558L-11.347-21.558z"/>
		</g>
		<g>
			<polygon fill="#FFFFFF" points="-14.058,-37.885 -14.058,-35.298 -11.472,-35.298 -11.472,-37.885 			"/>
			<path d="M-11.597-35.423v-2.337h-2.337v2.337H-11.597 M-11.347-35.173h-2.837v-2.837h2.837V-35.173L-11.347-35.173z"/>
		</g>
		<g>
			<polygon fill="#FFFFFF" points="-14.058,-41.289 -14.058,-38.702 -11.472,-38.702 -11.472,-41.289 			"/>
			<path d="M-11.597-38.827v-2.337h-2.337v2.337H-11.597 M-11.347-38.577h-2.837v-2.837h2.837V-38.577L-11.347-38.577z"/>
		</g>
		<g>
			<polygon fill="#FFFFFF" points="-14.058,-34.481 -14.058,-31.895 -11.472,-31.895 -11.472,-34.481 			"/>
			<path d="M-11.597-32.019v-2.337h-2.337v2.337H-11.597 M-11.347-31.769h-2.837v-2.837h2.837V-31.769L-11.347-31.769z"/>
		</g>
		<g>
			<polygon fill="#FFFFFF" points="-17.462,-44.692 -17.462,-42.106 -14.875,-42.106 -14.875,-44.692 			"/>
			<path d="M-15-42.231v-2.337h-2.337v2.337H-15 M-14.75-41.981h-2.837v-2.837h2.837V-41.981L-14.75-41.981z"/>
		</g>
		<g>
			<polygon fill="#FFFFFF" points="-17.462,-48.096 -17.462,-45.51 -14.875,-45.51 -14.875,-48.096 			"/>
			<path d="M-15-45.635v-2.337h-2.337v2.337H-15 M-14.75-45.385h-2.837v-2.837h2.837V-45.385L-14.75-45.385z"/>
		</g>
		<g>
			<polygon fill="#FFFFFF" points="-17.462,-37.885 -17.462,-35.298 -14.875,-35.298 -14.875,-37.885 			"/>
			<path d="M-15-35.423v-2.337h-2.337v2.337H-15 M-14.75-35.173h-2.837v-2.837h2.837V-35.173L-14.75-35.173z"/>
		</g>
		<g>
			<polygon fill="#FFFFFF" points="-17.462,-41.289 -17.462,-38.702 -14.875,-38.702 -14.875,-41.289 			"/>
			<path d="M-15-38.827v-2.337h-2.337v2.337H-15 M-14.75-38.577h-2.837v-2.837h2.837V-38.577L-14.75-38.577z"/>
		</g>
		<g>
			<polygon fill="#FFFFFF" points="-17.462,-34.481 -17.462,-31.895 -14.875,-31.895 -14.875,-34.481 			"/>
			<path d="M-15-32.019v-2.337h-2.337v2.337H-15 M-14.75-31.769h-2.837v-2.837h2.837V-31.769L-14.75-31.769z"/>
		</g>
		<g>
			<polygon fill="#FFFFFF" points="-10.654,-15.76 -10.654,-13.173 -8.067,-13.173 -8.067,-15.76 			"/>
			<path d="M-8.193-13.298v-2.337h-2.337v2.337H-8.193 M-7.943-13.048h-2.837v-2.837h2.837V-13.048L-7.943-13.048z"/>
		</g>
		<g>
			<polygon fill="#FFFFFF" points="-10.654,-12.356 -10.654,-9.77 -8.067,-9.77 -8.067,-12.356 			"/>
			<path d="M-8.193-9.894v-2.337h-2.337v2.337H-8.193 M-7.943-9.644h-2.837v-2.837h2.837V-9.644L-7.943-9.644z"/>
		</g>
		<g>
			<polygon fill="#FFFFFF" points="-10.654,-8.952 -10.654,-6.366 -8.067,-6.366 -8.067,-8.952 			"/>
			<path d="M-8.193-6.49v-2.337h-2.337v2.337H-8.193 M-7.943-6.24h-2.837v-2.837h2.837V-6.24L-7.943-6.24z"/>
		</g>
		<g>
			<polygon fill="#FFFFFF" points="-10.654,-5.548 -10.654,-1.26 -8.067,-1.26 -8.067,-5.548 			"/>
			<path d="M-8.193-1.385v-4.038h-2.337v4.038H-8.193 M-7.943-1.135h-2.837v-4.538h2.837V-1.135L-7.943-1.135z"/>
		</g>
		<g>
			<polygon fill="#FFFFFF" points="-10.654,-48.096 -10.654,-43.808 -8.067,-43.808 -8.067,-48.096 			"/>
			<path d="M-8.193-43.933v-4.038h-2.337v4.038H-8.193 M-7.943-43.683h-2.837v-4.538h2.837V-43.683L-7.943-43.683z"/>
		</g>
		<g>
			<polygon fill="#FFFFFF" points="-10.654,-19.164 -10.654,-16.577 -8.067,-16.577 -8.067,-19.164 			"/>
			<path d="M-8.193-16.702v-2.337h-2.337v2.337H-8.193 M-7.943-16.452h-2.837v-2.837h2.837V-16.452L-7.943-16.452z"/>
		</g>
		<g>
			<polygon fill="#FFFFFF" points="-10.654,-25.971 -10.654,-23.385 -8.067,-23.385 -8.067,-25.971 			"/>
			<path d="M-8.193-23.51v-2.337h-2.337v2.337H-8.193 M-7.943-23.26h-2.837v-2.837h2.837V-23.26L-7.943-23.26z"/>
		</g>
		<g>
			<polygon fill="#FFFFFF" points="-10.654,-29.375 -10.654,-26.789 -8.067,-26.789 -8.067,-29.375 			"/>
			<path d="M-8.193-26.914v-2.337h-2.337v2.337H-8.193 M-7.943-26.664h-2.837V-29.5h2.837V-26.664L-7.943-26.664z"/>
		</g>
		<g>
			<polygon fill="#FFFFFF" points="-10.654,-22.567 -10.654,-19.981 -8.067,-19.981 -8.067,-22.567 			"/>
			<path d="M-8.193-20.106v-2.337h-2.337v2.337H-8.193 M-7.943-19.856h-2.837v-2.837h2.837V-19.856L-7.943-19.856z"/>
		</g>
		<g>
			<polygon fill="#FFFFFF" points="-10.654,-32.779 -10.654,-30.192 -8.067,-30.192 -8.067,-32.779 			"/>
			<path d="M-8.193-30.317v-2.337h-2.337v2.337H-8.193 M-7.943-30.067h-2.837v-2.837h2.837V-30.067L-7.943-30.067z"/>
		</g>
		<g>
			<polygon fill="#FFFFFF" points="-10.654,-39.586 -10.654,-37 -8.067,-37 -8.067,-39.586 			"/>
			<path d="M-8.193-37.125v-2.337h-2.337v2.337H-8.193 M-7.943-36.875h-2.837v-2.837h2.837V-36.875L-7.943-36.875z"/>
		</g>
		<g>
			<polygon fill="#FFFFFF" points="-10.654,-42.991 -10.654,-40.404 -8.067,-40.404 -8.067,-42.991 			"/>
			<path d="M-8.193-40.529v-2.337h-2.337v2.337H-8.193 M-7.943-40.279h-2.837v-2.837h2.837V-40.279L-7.943-40.279z"/>
		</g>
		<g>
			<polygon fill="#FFFFFF" points="-10.654,-36.183 -10.654,-33.596 -8.067,-33.596 -8.067,-36.183 			"/>
			<path d="M-8.193-33.721v-2.337h-2.337v2.337H-8.193 M-7.943-33.471h-2.837v-2.837h2.837V-33.471L-7.943-33.471z"/>
		</g>
		<g>
			<polygon fill="#FFFFFF" points="-7.25,-17.461 -7.25,-14.875 -4.664,-14.875 -4.664,-17.461 			"/>
			<path d="M-4.789-15v-2.337h-2.337V-15H-4.789 M-4.539-14.75h-2.837v-2.837h2.837V-14.75L-4.539-14.75z"/>
		</g>
		<g>
			<polygon fill="#FFFFFF" points="-7.25,-14.058 -7.25,-11.471 -4.664,-11.471 -4.664,-14.058 			"/>
			<path d="M-4.789-11.596v-2.337h-2.337v2.337H-4.789 M-4.539-11.346h-2.837v-2.837h2.837V-11.346L-4.539-11.346z"/>
		</g>
		<g>
			<polygon fill="#FFFFFF" points="-7.25,-10.654 -7.25,-8.067 -4.664,-8.067 -4.664,-10.654 			"/>
			<path d="M-4.789-8.192v-2.337h-2.337v2.337H-4.789 M-4.539-7.942h-2.837v-2.837h2.837V-7.942L-4.539-7.942z"/>
		</g>
		<g>
			<polygon fill="#FFFFFF" points="-7.25,-7.25 -7.25,-1.26 -4.664,-1.26 -4.664,-7.25 			"/>
			<path d="M-4.789-1.385v-5.74h-2.337v5.74H-4.789 M-4.539-1.135h-2.837v-6.24h2.837V-1.135L-4.539-1.135z"/>
		</g>
		<g>
			<polygon fill="#FFFFFF" points="-7.25,-20.866 -7.25,-18.279 -4.664,-18.279 -4.664,-20.866 			"/>
			<path d="M-4.789-18.404v-2.337h-2.337v2.337H-4.789 M-4.539-18.154h-2.837v-2.837h2.837V-18.154L-4.539-18.154z"/>
		</g>
		<g>
			<polygon fill="#FFFFFF" points="-7.25,-27.673 -7.25,-25.086 -4.664,-25.086 -4.664,-27.673 			"/>
			<path d="M-4.789-25.212v-2.337h-2.337v2.337H-4.789 M-4.539-24.962h-2.837v-2.837h2.837V-24.962L-4.539-24.962z"/>
		</g>
		<g>
			<polygon fill="#FFFFFF" points="-7.25,-31.077 -7.25,-28.491 -4.664,-28.491 -4.664,-31.077 			"/>
			<path d="M-4.789-28.615v-2.337h-2.337v2.337H-4.789 M-4.539-28.365h-2.837v-2.837h2.837V-28.365L-4.539-28.365z"/>
		</g>
		<g>
			<polygon fill="#FFFFFF" points="-7.25,-24.27 -7.25,-21.683 -4.664,-21.683 -4.664,-24.27 			"/>
			<path d="M-4.789-21.808v-2.337h-2.337v2.337H-4.789 M-4.539-21.558h-2.837v-2.837h2.837V-21.558L-4.539-21.558z"/>
		</g>
		<g>
			<polygon fill="#FFFFFF" points="-3.847,-10.654 -3.847,-8.067 -1.26,-8.067 -1.26,-10.654 			"/>
			<path d="M-1.385-8.192v-2.337h-2.337v2.337H-1.385 M-1.135-7.942h-2.837v-2.837h2.837V-7.942L-1.135-7.942z"/>
		</g>
		<g>
			<polygon fill="#FFFFFF" points="-3.847,-7.25 -3.847,-4.664 -1.26,-4.664 -1.26,-7.25 			"/>
			<path d="M-1.385-4.789v-2.337h-2.337v2.337H-1.385 M-1.135-4.539h-2.837v-2.837h2.837V-4.539L-1.135-4.539z"/>
		</g>
		<g>
			<polygon fill="#FFFFFF" points="-3.847,-3.846 -3.847,-1.26 -1.26,-1.26 -1.26,-3.846 			"/>
			<path d="M-1.385-1.385v-2.337h-2.337v2.337H-1.385 M-1.135-1.135h-2.837v-2.837h2.837V-1.135L-1.135-1.135z"/>
		</g>
		<g>
			<polygon fill="#FFFFFF" points="-3.847,-14.058 -3.847,-11.471 -1.26,-11.471 -1.26,-14.058 			"/>
			<path d="M-1.385-11.596v-2.337h-2.337v2.337H-1.385 M-1.135-11.346h-2.837v-2.837h2.837V-11.346L-1.135-11.346z"/>
		</g>
		<g>
			<polygon fill="#FFFFFF" points="-3.847,-20.866 -3.847,-18.279 -1.26,-18.279 -1.26,-20.866 			"/>
			<path d="M-1.385-18.404v-2.337h-2.337v2.337H-1.385 M-1.135-18.154h-2.837v-2.837h2.837V-18.154L-1.135-18.154z"/>
		</g>
		<g>
			<polygon fill="#FFFFFF" points="-3.847,-24.27 -3.847,-21.683 -1.26,-21.683 -1.26,-24.27 			"/>
			<path d="M-1.385-21.808v-2.337h-2.337v2.337H-1.385 M-1.135-21.558h-2.837v-2.837h2.837V-21.558L-1.135-21.558z"/>
		</g>
		<g>
			<polygon fill="#FFFFFF" points="-3.847,-17.461 -3.847,-14.875 -1.26,-14.875 -1.26,-17.461 			"/>
			<path d="M-1.385-15v-2.337h-2.337V-15H-1.385 M-1.135-14.75h-2.837v-2.837h2.837V-14.75L-1.135-14.75z"/>
		</g>
		<g>
			<polygon fill="#FFFFFF" points="-3.847,-34.481 -3.847,-31.895 -1.26,-31.895 -1.26,-34.481 			"/>
			<path d="M-1.385-32.019v-2.337h-2.337v2.337H-1.385 M-1.135-31.769h-2.837v-2.837h2.837V-31.769L-1.135-31.769z"/>
		</g>
		<g>
			<polygon fill="#FFFFFF" points="-3.847,-31.077 -3.847,-28.491 -1.26,-28.491 -1.26,-31.077 			"/>
			<path d="M-1.385-28.615v-2.337h-2.337v2.337H-1.385 M-1.135-28.365h-2.837v-2.837h2.837V-28.365L-1.135-28.365z"/>
		</g>
		<g>
			<polygon fill="#FFFFFF" points="-3.847,-27.673 -3.847,-25.086 -1.26,-25.086 -1.26,-27.673 			"/>
			<path d="M-1.385-25.212v-2.337h-2.337v2.337H-1.385 M-1.135-24.962h-2.837v-2.837h2.837V-24.962L-1.135-24.962z"/>
		</g>
		<g>
			<polygon fill="#FFFFFF" points="-3.847,-37.885 -3.847,-35.298 -1.26,-35.298 -1.26,-37.885 			"/>
			<path d="M-1.385-35.423v-2.337h-2.337v2.337H-1.385 M-1.135-35.173h-2.837v-2.837h2.837V-35.173L-1.135-35.173z"/>
		</g>
		<g>
			<polygon fill="#FFFFFF" points="-3.847,-44.692 -3.847,-42.106 -1.26,-42.106 -1.26,-44.692 			"/>
			<path d="M-1.385-42.231v-2.337h-2.337v2.337H-1.385 M-1.135-41.981h-2.837v-2.837h2.837V-41.981L-1.135-41.981z"/>
		</g>
		<g>
			<polygon fill="#FFFFFF" points="-3.847,-48.096 -3.847,-45.51 -1.26,-45.51 -1.26,-48.096 			"/>
			<path d="M-1.385-45.635v-2.337h-2.337v2.337H-1.385 M-1.135-45.385h-2.837v-2.837h2.837V-45.385L-1.135-45.385z"/>
		</g>
		<g>
			<polygon fill="#FFFFFF" points="-3.847,-41.289 -3.847,-38.702 -1.26,-38.702 -1.26,-41.289 			"/>
			<path d="M-1.385-38.827v-2.337h-2.337v2.337H-1.385 M-1.135-38.577h-2.837v-2.837h2.837V-38.577L-1.135-38.577z"/>
		</g>
		<g>
			<polygon fill="#FFFFFF" points="-3.847,-58.308 -3.847,-55.721 -1.26,-55.721 -1.26,-58.308 			"/>
			<path d="M-1.385-55.846v-2.337h-2.337v2.337H-1.385 M-1.135-55.596h-2.837v-2.837h2.837V-55.596L-1.135-55.596z"/>
		</g>
		<g>
			<polygon fill="#FFFFFF" points="-3.847,-61.711 -3.847,-59.125 -1.26,-59.125 -1.26,-61.711 			"/>
			<path d="M-1.385-59.25v-2.337h-2.337v2.337H-1.385 M-1.135-59h-2.837v-2.837h2.837V-59L-1.135-59z"/>
		</g>
		<g>
			<polygon fill="#FFFFFF" points="-3.847,-54.904 -3.847,-52.317 -1.26,-52.317 -1.26,-54.904 			"/>
			<path d="M-1.385-52.442v-2.337h-2.337v2.337H-1.385 M-1.135-52.192h-2.837v-2.837h2.837V-52.192L-1.135-52.192z"/>
		</g>
		<g>
			<polygon fill="#FFFFFF" points="-7.25,-58.308 -7.25,-55.721 -4.664,-55.721 -4.664,-58.308 			"/>
			<path d="M-4.789-55.846v-2.337h-2.337v2.337H-4.789 M-4.539-55.596h-2.837v-2.837h2.837V-55.596L-4.539-55.596z"/>
		</g>
		<g>
			<polygon fill="#FFFFFF" points="-7.25,-61.711 -7.25,-59.125 -4.664,-59.125 -4.664,-61.711 			"/>
			<path d="M-4.789-59.25v-2.337h-2.337v2.337H-4.789 M-4.539-59h-2.837v-2.837h2.837V-59L-4.539-59z"/>
		</g>
		<g>
			<polygon fill="#FFFFFF" points="-7.25,-54.904 -7.25,-52.317 -4.664,-52.317 -4.664,-54.904 			"/>
			<path d="M-4.789-52.442v-2.337h-2.337v2.337H-4.789 M-4.539-52.192h-2.837v-2.837h2.837V-52.192L-4.539-52.192z"/>
		</g>
		<g>
			<polygon fill="#FFFFFF" points="-10.654,-58.308 -10.654,-55.721 -8.067,-55.721 -8.067,-58.308 			"/>
			<path d="M-8.193-55.846v-2.337h-2.337v2.337H-8.193 M-7.943-55.596h-2.837v-2.837h2.837V-55.596L-7.943-55.596z"/>
		</g>
		<g>
			<polygon fill="#FFFFFF" points="-10.654,-61.711 -10.654,-59.125 -8.067,-59.125 -8.067,-61.711 			"/>
			<path d="M-8.193-59.25v-2.337h-2.337v2.337H-8.193 M-7.943-59h-2.837v-2.837h2.837V-59L-7.943-59z"/>
		</g>
		<g>
			<polygon fill="#FFFFFF" points="-10.654,-54.904 -10.654,-52.317 -8.067,-52.317 -8.067,-54.904 			"/>
			<path d="M-8.193-52.442v-2.337h-2.337v2.337H-8.193 M-7.943-52.192h-2.837v-2.837h2.837V-52.192L-7.943-52.192z"/>
		</g>
		<g>
			<polygon fill="#FFFFFF" points="-17.462,-58.308 -17.462,-55.721 -14.875,-55.721 -14.875,-58.308 			"/>
			<path d="M-15-55.846v-2.337h-2.337v2.337H-15 M-14.75-55.596h-2.837v-2.837h2.837V-55.596L-14.75-55.596z"/>
		</g>
		<g>
			<polygon fill="#FFFFFF" points="-17.462,-61.711 -17.462,-59.125 -14.875,-59.125 -14.875,-61.711 			"/>
			<path d="M-15-59.25v-2.337h-2.337v2.337H-15 M-14.75-59h-2.837v-2.837h2.837V-59L-14.75-59z"/>
		</g>
		<g>
			<polygon fill="#FFFFFF" points="-17.462,-54.904 -17.462,-52.317 -14.875,-52.317 -14.875,-54.904 			"/>
			<path d="M-15-52.442v-2.337h-2.337v2.337H-15 M-14.75-52.192h-2.837v-2.837h2.837V-52.192L-14.75-52.192z"/>
		</g>
		<g>
			<polygon fill="#FFFFFF" points="-14.058,-58.308 -14.058,-55.721 -11.472,-55.721 -11.472,-58.308 			"/>
			<path d="M-11.597-55.846v-2.337h-2.337v2.337H-11.597 M-11.347-55.596h-2.837v-2.837h2.837V-55.596L-11.347-55.596z"/>
		</g>
		<g>
			<polygon fill="#FFFFFF" points="-14.058,-61.711 -14.058,-59.125 -11.472,-59.125 -11.472,-61.711 			"/>
			<path d="M-11.597-59.25v-2.337h-2.337v2.337H-11.597 M-11.347-59h-2.837v-2.837h2.837V-59L-11.347-59z"/>
		</g>
		<g>
			<polygon fill="#FFFFFF" points="-14.058,-54.904 -14.058,-52.317 -11.472,-52.317 -11.472,-54.904 			"/>
			<path d="M-11.597-52.442v-2.337h-2.337v2.337H-11.597 M-11.347-52.192h-2.837v-2.837h2.837V-52.192L-11.347-52.192z"/>
		</g>
		<g>
			<polygon fill="#FFFFFF" points="-3.847,-65.116 -3.847,-62.529 -1.26,-62.529 -1.26,-65.116 			"/>
			<path d="M-1.385-62.654v-2.337h-2.337v2.337H-1.385 M-1.135-62.404h-2.837v-2.837h2.837V-62.404L-1.135-62.404z"/>
		</g>
		<g>
			<polygon fill="#FFFFFF" points="-7.25,-65.116 -7.25,-62.529 -4.664,-62.529 -4.664,-65.116 			"/>
			<path d="M-4.789-62.654v-2.337h-2.337v2.337H-4.789 M-4.539-62.404h-2.837v-2.837h2.837V-62.404L-4.539-62.404z"/>
		</g>
		<g>
			<polygon fill="#FFFFFF" points="-10.654,-65.116 -10.654,-62.529 -8.067,-62.529 -8.067,-65.116 			"/>
			<path d="M-8.193-62.654v-2.337h-2.337v2.337H-8.193 M-7.943-62.404h-2.837v-2.837h2.837V-62.404L-7.943-62.404z"/>
		</g>
		<g>
			<polygon fill="#FFFFFF" points="-17.462,-65.116 -17.462,-62.529 -14.875,-62.529 -14.875,-65.116 			"/>
			<path d="M-15-62.654v-2.337h-2.337v2.337H-15 M-14.75-62.404h-2.837v-2.837h2.837V-62.404L-14.75-62.404z"/>
		</g>
		<g>
			<polygon fill="#FFFFFF" points="-14.058,-65.116 -14.058,-62.529 -11.472,-62.529 -11.472,-65.116 			"/>
			<path d="M-11.597-62.654v-2.337h-2.337v2.337H-11.597 M-11.347-62.404h-2.837v-2.837h2.837V-62.404L-11.347-62.404z"/>
		</g>
		<g>
			<polygon fill="#FFFFFF" points="-7.25,-34.481 -7.25,-31.895 -4.664,-31.895 -4.664,-34.481 			"/>
			<path d="M-4.789-32.019v-2.337h-2.337v2.337H-4.789 M-4.539-31.769h-2.837v-2.837h2.837V-31.769L-4.539-31.769z"/>
		</g>
		<g>
			<polygon fill="#FFFFFF" points="-7.25,-37.885 -7.25,-35.298 -4.664,-35.298 -4.664,-37.885 			"/>
			<path d="M-4.789-35.423v-2.337h-2.337v2.337H-4.789 M-4.539-35.173h-2.837v-2.837h2.837V-35.173L-4.539-35.173z"/>
		</g>
		<g>
			<polygon fill="#FFFFFF" points="-7.25,-44.692 -7.25,-42.106 -4.664,-42.106 -4.664,-44.692 			"/>
			<path d="M-4.789-42.231v-2.337h-2.337v2.337H-4.789 M-4.539-41.981h-2.837v-2.837h2.837V-41.981L-4.539-41.981z"/>
		</g>
		<g>
			<polygon fill="#FFFFFF" points="-7.25,-48.096 -7.25,-45.51 -4.664,-45.51 -4.664,-48.096 			"/>
			<path d="M-4.789-45.635v-2.337h-2.337v2.337H-4.789 M-4.539-45.385h-2.837v-2.837h2.837V-45.385L-4.539-45.385z"/>
		</g>
		<g>
			<polygon fill="#FFFFFF" points="-7.25,-41.289 -7.25,-38.702 -4.664,-38.702 -4.664,-41.289 			"/>
			<path d="M-4.789-38.827v-2.337h-2.337v2.337H-4.789 M-4.539-38.577h-2.837v-2.837h2.837V-38.577L-4.539-38.577z"/>
		</g>
	</g>
	<g id="Hand_2_">
		<polygon points="-7.943,-48.789 -7.943,-51.625 -16.452,-51.625 -16.452,-52.192 -7.943,-52.192 -7.943,-55.029 -16.452,-55.029 
			-16.452,-55.596 -7.943,-55.596 -7.943,-58.433 -16.452,-58.433 -16.452,-59 -7.943,-59 -7.943,-61.837 -18.722,-61.837 
			-23.827,-56.731 -23.827,-48.789 -18.722,-43.683 -18.722,-48.789 		"/>
	</g>
	<polygon id="Chest_3_" fill="#FFFFFF" stroke="#000000" stroke-width="0.25" stroke-miterlimit="10" points="-72,-56.25 -72,-90 
		-29.25,-47.25 -33.75,-42.75 -47.25,-56.25 	"/>
	<polygon id="Cape_1_" fill="#FFFFFF" stroke="#000000" stroke-width="0.25" stroke-miterlimit="10" points="-74.25,-45 
		-126,-69.75 -126,-92.25 -97.875,-92.25 -72,-66.375 -72,-45 	"/>
	<polygon id="Colar_3_" fill="#FFFFFF" stroke="#000000" stroke-width="0.25" stroke-miterlimit="10" points="-68.625,-39.375 
		-63,-45 -42.75,-45 -37.125,-39.375 -33.75,-42.75 -47.25,-56.25 -74.25,-56.25 -74.25,-45 	"/>
	<polygon fill="#FFFFFF" stroke="#000000" stroke-width="0.25" stroke-miterlimit="10" points="-68.625,-11.25 -79.875,0 -25.875,0 
		-37.125,-11.25 	"/>
</symbol>
<symbol  id="Under" viewBox="-72.177 -131.927 111.901 84.854">
	<polygon id="Void_3_" fill="#FFFFFF" stroke="#000000" stroke-width="0.25" stroke-miterlimit="10" points="-54,-131.625 
		-30.375,-108 -30.375,-84.375 -54,-84.375 	"/>
	<polygon id="Bandolier_3_" fill="#FFFFFF" stroke="#000000" stroke-width="0.25" stroke-miterlimit="10" points="-72,-90 -54,-108 
		-11.25,-65.25 -29.25,-47.25 	"/>
	<g id="Shield_2_">
		<path fill="#FFFFFF" stroke="#000000" stroke-width="0.25" stroke-miterlimit="10" d="M39.6-88.5c0-21.87-17.73-39.6-39.6-39.6
			s-39.6,17.73-39.6,39.6S-21.871-48.9,0-48.9S39.6-66.63,39.6-88.5z"/>
		<path fill="#FFFFFF" stroke="#000000" stroke-width="0.25" stroke-miterlimit="10" d="M36-88.5c0-19.882-16.118-36-36-36
			s-36,16.118-36,36s16.118,36,36,36S36-68.618,36-88.5z"/>
		<path fill="#FFFFFF" stroke="#000000" stroke-width="0.25" stroke-miterlimit="10" d="M32.633-88.5
			c0-18.023-14.61-32.633-32.633-32.633s-32.633,14.61-32.633,32.633S-18.023-55.867,0-55.867S32.633-70.477,32.633-88.5z"/>
		<path fill="#FFFFFF" stroke="#000000" stroke-width="0.25" stroke-miterlimit="10" d="M28.966-88.5
			c0-15.998-12.969-28.967-28.967-28.967S-28.967-104.498-28.967-88.5S-15.998-59.533,0-59.533S28.966-72.502,28.966-88.5z"/>
		<path fill="#FFFFFF" stroke="#000000" stroke-width="0.25" stroke-miterlimit="10" d="M25.2-88.5c0-13.918-11.282-25.2-25.2-25.2
			s-25.2,11.282-25.2,25.2S-13.918-63.3,0-63.3S25.2-74.583,25.2-88.5z"/>
	</g>
</symbol>
<g id="Layer_1">
</g>
<g id="Layer_2">
	
		<use xlink:href="#Under"  width="111.901" height="84.854" x="-72.177" y="-131.927" transform="matrix(-1 0 0 1 27 225)" overflow="visible"/>
	
		<use xlink:href="#Under"  width="111.901" height="84.854" id="XMLID_2_" x="-72.177" y="-131.927" transform="matrix(1 0 0 -1 153 27)" overflow="visible"/>
	
		<use xlink:href="#Over"  width="126.125" height="92.5" id="XMLID_3_" x="-126.125" y="-92.375" transform="matrix(-1 0 0 1 26.9997 225)" overflow="visible"/>
	
		<use xlink:href="#Over"  width="126.125" height="92.5" id="XMLID_1_" x="-126.125" y="-92.375" transform="matrix(1 0 0 -1 153 27)" overflow="visible"/>
</g>
<g id="Layer_3">
	<path fill="#FFFFFF" stroke="#000000" stroke-width="0.25" stroke-miterlimit="10" d="M0,0v252h180V0H0z M153,225H27V27h126V225z"
		/>
</g>
</svg>
